<?xml version="1.0" standalone="no"?>
<!DOCTYPE svg PUBLIC "-//W3C//DTD SVG 20010904//EN"
 "http://www.w3.org/TR/2001/REC-SVG-20010904/DTD/svg10.dtd">
<svg version="1.0" xmlns="http://www.w3.org/2000/svg"
 width="439.000000pt" height="568.000000pt" viewBox="0 0 439.000000 568.000000"
 preserveAspectRatio="xMidYMid meet">

<g transform="translate(0.000000,568.000000) scale(0.100000,-0.100000)"
fill="#000000" stroke="none">
<path d="M1940 2810 c20 -13 33 -13 25 0 -3 6 -14 10 -23 10 -15 0 -15 -2 -2
-10z"/>
<path d="M2164 2671 c10 -16 46 -20 46 -5 0 8 -10 14 -26 14 -14 0 -23 -4 -20
-9z"/>
<path d="M2191 2628 c-1 -9 -7 -19 -13 -21 -8 -4 -7 -6 3 -6 17 -1 36 -31 19
-31 -5 0 -7 -7 -4 -15 5 -12 10 -13 20 -4 8 6 11 16 7 22 -3 5 -1 7 5 3 6 -3
13 -2 16 3 3 5 -1 12 -10 15 -11 4 -13 12 -8 28 6 20 5 21 -9 10 -12 -10 -16
-10 -20 0 -4 9 -6 7 -6 -4z"/>
<path d="M1760 2581 c0 -9 27 -23 140 -74 30 -13 84 -38 120 -54 36 -17 86
-40 113 -52 l47 -21 73 24 c39 14 104 37 142 51 39 15 97 36 130 47 80 28 105
40 105 50 0 10 -59 1 -75 -12 -5 -4 -41 -18 -78 -30 -37 -13 -70 -27 -73 -31
-3 -5 -15 -9 -28 -9 -12 0 -26 -3 -29 -7 -16 -15 -115 -43 -154 -43 -25 0 -64
10 -95 25 -28 14 -55 25 -59 25 -8 0 -148 64 -222 101 -43 21 -57 24 -57 10z"/>
<path d="M2200 2510 c0 -5 5 -10 10 -10 6 0 10 5 10 10 0 6 -4 10 -10 10 -5 0
-10 -4 -10 -10z"/>
</g>
</svg>
